M48
;Layer_Color=9474304
;FILE_FORMAT=4:2
METRIC,LZ
;TYPE=PLATED
T1F00S00C0.33
T3F00S00C0.50
T4F00S00C0.70
T5F00S00C1.90
%
T01
X006475Y004532
X006595
X006715
X006835
Y004652
X006715
X006595
X006475
Y004772
X006595
X006715
X006835
Y004892
X006715
X006595
X006475
T03
X006896Y003747
X007023
X00715
T04
X004506Y005804
X004816
T05
X004582Y004449
X004582Y004899
M30
